<svg xmlns="http://www.w3.org/2000/svg" viewBox="0 0 440 245" fill="none" stroke="currentColor" role="img" aria-label="NUR">
  <!-- Logo NUR : point de lumière au-dessus du U, livre ouvert en dessous -->
  <!-- Anneau (la lumière / nour) -->
  <circle cx="219" cy="32" r="16" stroke-width="11" />
  <!-- N -->
  <path d="M65 62 V163 M65 62 L145 163 M145 62 V163" stroke-width="21" />
  <!-- U -->
  <path d="M183.5 62 V132 A35.3 35.3 0 0 0 254 132 V62" stroke-width="21" />
  <!-- R -->
  <path d="M296.5 62 V163 M296.5 62 H340 A34.5 25.5 0 0 1 340 113 H296.5 M334 113 L374 163" stroke-width="21" />
  <!-- Livre ouvert -->
  <g stroke-width="11" stroke-linecap="round">
    <path d="M43 188 C 115 171, 185 183, 219 211" />
    <path d="M396 188 C 324 171, 254 183, 219 211" />
    <path d="M52 207 C 120 191, 186 199, 219 229" />
    <path d="M387 207 C 319 191, 253 199, 219 229" />
  </g>
</svg>
